<?xml version="1.0" encoding="iso-8859-1"?>
<!-- Generator: Adobe Illustrator 19.0.0, SVG Export Plug-In . SVG Version: 6.00 Build 0)  -->
<svg version="1.1" id="Capa_1" xmlns="http://www.w3.org/2000/svg" xmlns:xlink="http://www.w3.org/1999/xlink" x="0px" y="0px"
	 viewBox="0 0 512.001 512.001" style="enable-background:new 0 0 512.001 512.001;" xml:space="preserve">
<g>
	<g>
		<g>
			<path d="M135.701,86.826c3.771,6.123,10.315,9.495,17.014,9.495c3.571,0,7.187-0.959,10.449-2.968
				c9.386-5.782,12.309-18.077,6.527-27.463l-14.984-24.326c-5.781-9.386-18.078-12.307-27.463-6.527
				c-9.386,5.782-12.308,18.077-6.527,27.463L135.701,86.826z"/>
			<path d="M67.198,342.321l-25.325,13.985c-9.65,5.329-13.153,17.472-7.823,27.122c3.64,6.591,10.458,10.315,17.491,10.315
				c3.263,0,6.572-0.801,9.631-2.491l25.325-13.985c9.65-5.329,13.153-17.472,7.823-27.122
				C88.991,340.495,76.85,336.992,67.198,342.321z"/>
			<path d="M255.492,70.37c11.024,0,19.96-8.936,19.96-19.96v-29.94c0-11.024-8.936-19.96-19.96-19.96s-19.96,8.936-19.96,19.96
				v29.94C235.532,61.433,244.468,70.37,255.492,70.37z"/>
			<path d="M69.861,256c0-11.024-8.936-19.96-19.96-19.96H19.96C8.936,236.04,0,244.976,0,256c0,11.024,8.936,19.96,19.96,19.96
				h29.94C60.925,275.961,69.861,267.025,69.861,256z"/>
			<path d="M237.596,370.398c-1.142-0.178-2.277-0.37-3.408-0.581c-54.736-10.17-94.465-58.038-94.465-113.817
				c0-57.425,42.806-106.713,99.574-114.648c1.402-0.197,2.833-0.369,4.255-0.515c10.967-1.122,18.947-10.92,17.827-21.888
				c-1.122-10.966-10.922-18.949-21.888-17.826c-1.911,0.195-3.837,0.428-5.723,0.692c-36.855,5.152-70.725,23.469-95.372,51.578
				C113.507,181.776,99.802,218.215,99.802,256c0,75.009,53.451,139.383,127.092,153.066c1.505,0.279,3.046,0.542,4.577,0.78
				c1.038,0.162,2.068,0.24,3.087,0.24c9.673-0.001,18.17-7.046,19.7-16.901C255.948,382.291,248.489,372.09,237.596,370.398z"/>
			<path d="M507.796,220.953c-7.602-16.55-23.856-26.831-42.419-26.831h-35.882l79.575-132.435
				c3.705-6.166,3.805-13.849,0.263-20.109c-3.542-6.26-10.18-10.131-17.372-10.131H373.258c-7.103,0-13.67,3.775-17.246,9.91
				L239.61,241.105c-0.094,0.161-0.185,0.322-0.273,0.486c-10.23,18.74-9.832,40.89,1.063,59.25
				c10.895,18.361,30.147,29.323,51.497,29.323h19.529l-50.429,140.458c-3.901,9.274-3.233,19.045,1.879,26.948
				c5.643,8.726,15.989,13.922,27.7,13.922c0.053,0,0.105,0,0.157,0c9.947-0.039,19.562-3.983,26.38-10.821
				c0.603-0.605,1.167-1.247,1.688-1.925L427.9,356.876c6.72-8.739,5.084-21.271-3.655-27.99c-8.739-6.721-21.271-5.085-27.99,3.655
				l-81.158,105.534l43.488-121.125c2.196-6.115,1.277-12.915-2.461-18.23c-3.739-5.314-9.828-8.476-16.326-8.476h-47.904
				c-10.258,0-15.421-6.835-17.166-9.774c-1.731-2.916-5.215-10.627-0.466-19.544L384.728,71.368h71.954l-79.575,132.436
				c-3.705,6.166-3.805,13.848-0.263,20.109s10.18,10.131,17.372,10.131h71.161c3.916,0,5.529,2.239,6.142,3.573
				c0.718,1.562,1.086,3.989-1.231,6.686c-0.05,0.058-0.099,0.116-0.148,0.174l-8.195,9.765c-7.087,8.443-5.986,21.034,2.458,28.121
				c8.444,7.087,21.034,5.986,28.121-2.458l8.13-9.687C512.601,256.237,515.338,237.374,507.796,220.953z"/>
			<path d="M88.773,129.902L64.409,115.93c-9.562-5.483-21.761-2.178-27.245,7.385c-5.484,9.563-2.178,21.761,7.385,27.245
				l24.365,13.972c3.131,1.795,6.544,2.649,9.911,2.649c6.918-0.001,13.645-3.603,17.334-10.034
				C101.643,147.584,98.336,135.386,88.773,129.902z"/>
			<path d="M156.77,414.411c-9.52-5.554-21.743-2.343-27.301,7.178l-14.584,24.987c-5.556,9.521-2.343,21.744,7.178,27.301
				c3.164,1.846,6.626,2.725,10.043,2.725c6.864,0,13.547-3.545,17.258-9.902l14.584-24.987
				C169.504,432.191,166.291,419.968,156.77,414.411z"/>
		</g>
	</g>
</g>
<g>
</g>
<g>
</g>
<g>
</g>
<g>
</g>
<g>
</g>
<g>
</g>
<g>
</g>
<g>
</g>
<g>
</g>
<g>
</g>
<g>
</g>
<g>
</g>
<g>
</g>
<g>
</g>
<g>
</g>
</svg>
