<?xml version="1.0"?>
<svg xmlns="http://www.w3.org/2000/svg" viewBox="0 0 64 64" width="512" height="512"><g id="Outline"><g><path d="M60,35.5a11.83,11.83,0,0,0-1.069-4.913,1,1,0,0,0-1.823.826A9.839,9.839,0,0,1,58,35.5a9.994,9.994,0,0,1-16.975,7.158,1,1,0,0,0-1.217-.139A16.974,16.974,0,0,1,32,44.965V41a1,1,0,0,0-2,0V51a1,1,0,0,0,1,1h3.06L24,59.738l-12.39-9.53a1,1,0,0,0-1.22,1.584l13,10a1,1,0,0,0,1.22,0l13-10A1,1,0,0,0,37,50H32V46.968a18.94,18.94,0,0,0,8.194-2.361A11.994,11.994,0,0,0,60,35.5Z"/><path d="M12.834,46.807A1.053,1.053,0,0,0,13,46.82a1,1,0,0,0,.165-1.986,10.988,10.988,0,0,1,.942-21.789,1,1,0,0,0,.864-.665A17.013,17.013,0,0,1,31,11a16.814,16.814,0,0,1,12,5V27a1,1,0,0,0,1,1H58a1,1,0,0,0,1-1V16a1,1,0,0,0-2,0V26H45V8H57v4a1,1,0,0,0,2,0V7a1,1,0,0,0-1-1H55V3a1,1,0,0,0-1-1H48a1,1,0,0,0-1,1V6H44a1,1,0,0,0-1,1v6.306A18.761,18.761,0,0,0,31,9,19.015,19.015,0,0,0,13.306,21.12a12.988,12.988,0,0,0-.472,25.687ZM49,4h4V6H49Z"/><path d="M38.072,39.341a1,1,0,0,0,.941.659H45a1,1,0,0,0,0-2H41.771l3.87-3.232a.994.994,0,0,0,.344-.9A4,4,0,0,0,42,30a4.18,4.18,0,0,0-3.055,1.354,3.531,3.531,0,0,0-.927,2.748,1,1,0,0,0,1.99-.2,1.547,1.547,0,0,1,.422-1.2A2.147,2.147,0,0,1,42,32a1.994,1.994,0,0,1,1.943,1.58l-5.571,4.652A1,1,0,0,0,38.072,39.341Z"/><path d="M32,36a5.006,5.006,0,0,0,5-5V27a5,5,0,0,0-10,0v4A5.006,5.006,0,0,0,32,36Zm-3-9a3,3,0,0,1,6,0v4a3,3,0,0,1-6,0Z"/><path d="M20,24a3,3,0,0,1,3,3,1,1,0,0,0,2,0,5,5,0,0,0-10,0v4a5,5,0,0,0,10,0,1,1,0,0,0-2,0,3,3,0,0,1-6,0V27A3,3,0,0,1,20,24Z"/><path d="M17,52a1,1,0,0,0,1-1V42h9a1,1,0,0,0,0-2H17a1,1,0,0,0-1,1V51A1,1,0,0,0,17,52Z"/><path d="M50.553,21.9a1,1,0,0,0,1.342-.448l2-4A1,1,0,0,0,53,16H50.618L51.9,13.447a1,1,0,1,0-1.79-.894l-2,4A1,1,0,0,0,49,18h2.382l-1.277,2.553A1,1,0,0,0,50.553,21.9Z"/><path d="M47,50a1,1,0,0,0-1,1v5a1,1,0,0,0,2,0V51A1,1,0,0,0,47,50Z"/><path d="M56,47a1,1,0,0,0-1,1v3a1,1,0,0,0,2,0V48A1,1,0,0,0,56,47Z"/><path d="M6,47a1,1,0,0,0-1,1v3a1,1,0,0,0,2,0V48A1,1,0,0,0,6,47Z"/><path d="M10,56a1,1,0,0,0-1,1v3a1,1,0,0,0,2,0V57A1,1,0,0,0,10,56Z"/><path d="M4,15H6.131l-.963,1.445a1,1,0,0,0,1.664,1.11l2-3A1,1,0,0,0,8,13H5.869l.963-1.445a1,1,0,1,0-1.664-1.11l-2,3A1,1,0,0,0,4,15Z"/><path d="M17,7h2.131l-.963,1.445a1,1,0,0,0,1.664,1.11l2-3A1,1,0,0,0,21,5H18.869l.963-1.445a1,1,0,0,0-1.664-1.11l-2,3A1,1,0,0,0,17,7Z"/></g></g></svg>
