<svg id="Capa_1" enable-background="new 0 0 512 512" height="512" viewBox="0 0 512 512" width="512" xmlns="http://www.w3.org/2000/svg"><g><path d="m430.437 325.066c-27.444 0-51.747 13.639-66.538 34.48l-16.948-9.787c6.427-13.274 10.034-28.157 10.034-43.868 0-17.944-4.768-35.57-13.79-50.974-2.094-3.575-6.688-4.775-10.262-2.682s-4.775 6.688-2.682 10.262c7.676 13.106 11.733 28.112 11.733 43.394 0 47.42-38.58 86-86 86s-86-38.58-86-86 38.58-86 86-86c19.441 0 37.782 6.327 53.039 18.298 3.258 2.557 7.972 1.988 10.53-1.271 2.557-3.259 1.988-7.973-1.271-10.53-15.921-12.492-34.701-19.739-54.7-21.205l.018-18.601c41.507-3.763 74.142-38.739 74.142-81.21 0-44.974-36.589-81.563-81.563-81.563-17.42 0-34.042 5.416-48.068 15.663-3.345 2.443-4.075 7.136-1.632 10.48s7.135 4.074 10.48 1.632c11.44-8.358 25.002-12.775 39.22-12.775 36.703 0 66.563 29.86 66.563 66.563s-29.86 66.563-66.563 66.563-66.563-29.86-66.563-66.563c0-10.455 2.353-20.459 6.993-29.735 1.853-3.705.353-8.21-3.352-10.063-3.706-1.854-8.21-.353-10.063 3.352-5.692 11.378-8.578 23.64-8.578 36.446 0 42.417 32.551 77.361 73.984 81.198l-.018 18.594c-52.248 3.803-93.598 47.526-93.598 100.728 0 15.713 3.608 30.599 10.038 43.875l-16.926 9.776c-14.791-20.838-39.092-34.475-66.534-34.475-44.973-.002-81.562 36.587-81.562 81.561s36.589 81.563 81.563 81.563c12.982 0 25.396-2.962 36.897-8.805 3.693-1.876 5.166-6.391 3.29-10.083-1.876-3.693-6.391-5.165-10.083-3.29-9.375 4.763-19.504 7.178-30.103 7.178-36.704 0-66.564-29.86-66.564-66.563s29.86-66.563 66.563-66.563 66.563 29.86 66.563 66.563c0 14.07-4.334 27.517-12.533 38.886-2.423 3.359-1.664 8.047 1.696 10.47 3.359 2.423 8.047 1.663 10.47-1.696 10.053-13.94 15.367-30.42 15.367-47.66 0-12.175-2.701-23.725-7.504-34.112l16.927-9.776c18.205 26.634 48.812 44.15 83.436 44.15 34.627 0 65.236-17.519 83.44-44.156l16.95 9.788c-4.802 10.385-7.501 21.933-7.501 34.106 0 44.974 36.589 81.563 81.563 81.563 3.74 0 7.503-.256 11.185-.762 4.104-.563 6.974-4.346 6.411-8.45s-4.346-6.975-8.45-6.411c-3.009.413-6.086.622-9.146.622-36.703 0-66.563-29.86-66.563-66.563s29.86-66.563 66.563-66.563 66.563 29.86 66.563 66.563c0 21.585-10.539 41.92-28.192 54.398-3.382 2.391-4.186 7.071-1.795 10.454 2.391 3.382 7.071 4.187 10.454 1.795 21.623-15.283 34.533-40.198 34.533-66.646 0-44.974-36.589-81.563-81.563-81.563z"/><path d="m293.154 284.711-30.283-.005-.004-40.814c-.002-4.045-2.761-7.474-6.711-8.339-3.947-.867-7.886 1.096-9.578 4.77l-36.142 78.49c-1.226 2.659-1.015 5.718.563 8.183 1.577 2.464 4.264 3.935 7.188 3.935l29.684-.001.002 40.735c0 4.032 2.748 7.46 6.682 8.336 3.052.617 6.971-.365 9.583-4.71l36.743-78.412c0-.001 0-.002.001-.002 1.246-2.661 1.048-5.729-.528-8.208-1.575-2.48-4.268-3.958-7.2-3.958zm-30.282 57.929v-14.01c0-7.004-5.688-12.703-12.68-12.703h-21.914l19.593-42.55.001 13.626c.001 7.002 5.688 12.7 12.677 12.701l22.44.004z"/><path d="m466.897 432.483-8.444-8.444c1.88-3.014 3.283-6.352 4.114-9.91h11.933c4.142 0 7.5-3.358 7.5-7.5s-3.358-7.5-7.5-7.5h-11.933c-.83-3.557-2.234-6.895-4.114-9.91l8.444-8.444c2.929-2.929 2.929-7.678 0-10.606-2.929-2.929-7.678-2.929-10.606 0l-8.444 8.444c-3.014-1.88-6.352-3.283-9.91-4.114v-11.933c0-4.142-3.358-7.5-7.5-7.5s-7.5 3.358-7.5 7.5v11.933c-3.557.83-6.895 2.234-9.91 4.114l-8.444-8.444c-2.929-2.929-7.678-2.929-10.606 0-2.929 2.929-2.929 7.678 0 10.606l8.444 8.444c-1.88 3.014-3.283 6.352-4.114 9.91h-11.933c-4.142 0-7.5 3.358-7.5 7.5s3.358 7.5 7.5 7.5h11.933c.83 3.557 2.234 6.895 4.114 9.91l-8.444 8.444c-2.929 2.929-2.929 7.678 0 10.606 1.464 1.464 3.384 2.197 5.303 2.197s3.839-.732 5.303-2.197l8.444-8.444c3.014 1.88 6.352 3.283 9.91 4.114v11.933c0 4.142 3.358 7.5 7.5 7.5s7.5-3.358 7.5-7.5v-11.933c3.557-.83 6.895-2.234 9.91-4.114l8.444 8.444c1.464 1.464 3.384 2.197 5.303 2.197s3.839-.732 5.303-2.197c2.93-2.928 2.93-7.677 0-10.606zm-36.46-7.854c-9.925 0-18-8.075-18-18s8.075-18 18-18 18 8.075 18 18-8.075 18-18 18z"/><path d="m293.283 114.828c0-15.63-18.861-39.798-30.105-52.814-1.758-2.035-4.309-3.202-6.998-3.202s-5.24 1.167-6.999 3.203c-11.243 13.017-30.104 37.186-30.104 52.813 0 20.459 16.645 37.104 37.104 37.104 20.458-.001 37.102-16.645 37.102-37.104zm-59.206 0c0-6.589 8.889-21.673 22.104-37.831 13.213 16.155 22.103 31.24 22.103 37.831 0 12.188-9.916 22.104-22.103 22.104-12.189-.001-22.104-9.916-22.104-22.104z"/><path d="m46.466 441.729c2.329 2.168 6.709 3.43 10.606.042l7.993-7.931c4.431 2.515 9.275 3.79 14.221 3.79 6.854 0 13.899-2.435 20.296-7.359 24.748-19.048 19.819-44.005 16.552-53.849-1.064-3.21-3.635-5.705-6.875-6.674-3.25-.972-6.777-.294-9.438 1.813-2.676 2.118-8 5.752-13.591 6.295-10.522.887-19.685 1.543-28.485 10.624-7.991 7.998-10.567 23.632-3.579 35.045l-7.658 7.598c-2.94 2.917-2.959 7.666-.042 10.606zm21.891-42.648c4.205-4.781 9.821-5.619 19.321-6.296 5.967-.579 11.361-2.888 15.73-5.5 1.419 8.832.115 21.024-12.974 31.099-7.804 6.007-16.118 5.616-22.243-1.042-5.027-5.466-3.39-14.701.166-18.261z"/></g></svg>